<mxfile host="Electron" agent="Mozilla/5.0 (Windows NT 10.0; Win64; x64) AppleWebKit/537.36 (KHTML, like Gecko) draw.io/28.1.2 Chrome/138.0.7204.243 Electron/37.4.0 Safari/537.36" version="28.1.2">
  <diagram id="C5RBs43oDa-KdzZeNtuy" name="Page-1">
    <mxGraphModel dx="1175" dy="608" grid="1" gridSize="10" guides="1" tooltips="1" connect="1" arrows="1" fold="1" page="1" pageScale="1" pageWidth="827" pageHeight="1169" math="0" shadow="0">
      <root>
        <mxCell id="WIyWlLk6GJQsqaUBKTNV-0" />
        <mxCell id="WIyWlLk6GJQsqaUBKTNV-1" parent="WIyWlLk6GJQsqaUBKTNV-0" />
        <mxCell id="ELYIfCKEnZ6V1FRkc1U1-0" value="start" style="ellipse;whiteSpace=wrap;html=1;" vertex="1" parent="WIyWlLk6GJQsqaUBKTNV-1">
          <mxGeometry x="170" y="50" width="50" height="50" as="geometry" />
        </mxCell>
        <mxCell id="ELYIfCKEnZ6V1FRkc1U1-1" value="End" style="ellipse;whiteSpace=wrap;html=1;" vertex="1" parent="WIyWlLk6GJQsqaUBKTNV-1">
          <mxGeometry x="175" y="535" width="50" height="50" as="geometry" />
        </mxCell>
        <mxCell id="ELYIfCKEnZ6V1FRkc1U1-13" style="edgeStyle=orthogonalEdgeStyle;rounded=0;orthogonalLoop=1;jettySize=auto;html=1;entryX=0.5;entryY=0;entryDx=0;entryDy=0;" edge="1" parent="WIyWlLk6GJQsqaUBKTNV-1" source="ELYIfCKEnZ6V1FRkc1U1-2" target="ELYIfCKEnZ6V1FRkc1U1-7">
          <mxGeometry relative="1" as="geometry" />
        </mxCell>
        <mxCell id="ELYIfCKEnZ6V1FRkc1U1-2" value="input" style="shape=parallelogram;perimeter=parallelogramPerimeter;whiteSpace=wrap;html=1;fixedSize=1;" vertex="1" parent="WIyWlLk6GJQsqaUBKTNV-1">
          <mxGeometry x="140" y="220" width="120" height="60" as="geometry" />
        </mxCell>
        <mxCell id="ELYIfCKEnZ6V1FRkc1U1-6" style="edgeStyle=orthogonalEdgeStyle;rounded=0;orthogonalLoop=1;jettySize=auto;html=1;entryX=0.5;entryY=0;entryDx=0;entryDy=0;" edge="1" parent="WIyWlLk6GJQsqaUBKTNV-1" source="ELYIfCKEnZ6V1FRkc1U1-3" target="ELYIfCKEnZ6V1FRkc1U1-2">
          <mxGeometry relative="1" as="geometry" />
        </mxCell>
        <mxCell id="ELYIfCKEnZ6V1FRkc1U1-3" value="print: wie Alt bist DU!" style="rounded=1;whiteSpace=wrap;html=1;" vertex="1" parent="WIyWlLk6GJQsqaUBKTNV-1">
          <mxGeometry x="140" y="130" width="120" height="60" as="geometry" />
        </mxCell>
        <mxCell id="ELYIfCKEnZ6V1FRkc1U1-5" style="edgeStyle=orthogonalEdgeStyle;rounded=0;orthogonalLoop=1;jettySize=auto;html=1;entryX=0.469;entryY=0.036;entryDx=0;entryDy=0;entryPerimeter=0;" edge="1" parent="WIyWlLk6GJQsqaUBKTNV-1" source="ELYIfCKEnZ6V1FRkc1U1-0" target="ELYIfCKEnZ6V1FRkc1U1-3">
          <mxGeometry relative="1" as="geometry" />
        </mxCell>
        <mxCell id="ELYIfCKEnZ6V1FRkc1U1-8" style="edgeStyle=orthogonalEdgeStyle;rounded=0;orthogonalLoop=1;jettySize=auto;html=1;exitX=0.5;exitY=1;exitDx=0;exitDy=0;entryX=0.5;entryY=0;entryDx=0;entryDy=0;" edge="1" parent="WIyWlLk6GJQsqaUBKTNV-1" source="ELYIfCKEnZ6V1FRkc1U1-7" target="ELYIfCKEnZ6V1FRkc1U1-9">
          <mxGeometry relative="1" as="geometry">
            <mxPoint x="240" y="410" as="targetPoint" />
            <mxPoint x="190" y="390.14" as="sourcePoint" />
          </mxGeometry>
        </mxCell>
        <mxCell id="ELYIfCKEnZ6V1FRkc1U1-10" value="yes" style="edgeLabel;html=1;align=center;verticalAlign=middle;resizable=0;points=[];" vertex="1" connectable="0" parent="ELYIfCKEnZ6V1FRkc1U1-8">
          <mxGeometry x="0.0939" y="2" relative="1" as="geometry">
            <mxPoint as="offset" />
          </mxGeometry>
        </mxCell>
        <mxCell id="ELYIfCKEnZ6V1FRkc1U1-12" style="edgeStyle=orthogonalEdgeStyle;rounded=0;orthogonalLoop=1;jettySize=auto;html=1;entryX=0;entryY=0.5;entryDx=0;entryDy=0;" edge="1" parent="WIyWlLk6GJQsqaUBKTNV-1" source="ELYIfCKEnZ6V1FRkc1U1-7" target="ELYIfCKEnZ6V1FRkc1U1-11">
          <mxGeometry relative="1" as="geometry" />
        </mxCell>
        <mxCell id="ELYIfCKEnZ6V1FRkc1U1-16" value="No" style="edgeLabel;html=1;align=center;verticalAlign=middle;resizable=0;points=[];" vertex="1" connectable="0" parent="ELYIfCKEnZ6V1FRkc1U1-12">
          <mxGeometry x="-0.2571" y="2" relative="1" as="geometry">
            <mxPoint as="offset" />
          </mxGeometry>
        </mxCell>
        <mxCell id="ELYIfCKEnZ6V1FRkc1U1-7" value="over 50" style="rhombus;whiteSpace=wrap;html=1;" vertex="1" parent="WIyWlLk6GJQsqaUBKTNV-1">
          <mxGeometry x="160" y="310" width="80" height="80" as="geometry" />
        </mxCell>
        <mxCell id="ELYIfCKEnZ6V1FRkc1U1-14" style="edgeStyle=orthogonalEdgeStyle;rounded=0;orthogonalLoop=1;jettySize=auto;html=1;" edge="1" parent="WIyWlLk6GJQsqaUBKTNV-1" source="ELYIfCKEnZ6V1FRkc1U1-9" target="ELYIfCKEnZ6V1FRkc1U1-1">
          <mxGeometry relative="1" as="geometry" />
        </mxCell>
        <mxCell id="ELYIfCKEnZ6V1FRkc1U1-9" value="Du bist Alt Geworden" style="rounded=1;whiteSpace=wrap;html=1;" vertex="1" parent="WIyWlLk6GJQsqaUBKTNV-1">
          <mxGeometry x="140" y="440" width="120" height="60" as="geometry" />
        </mxCell>
        <mxCell id="ELYIfCKEnZ6V1FRkc1U1-15" style="edgeStyle=orthogonalEdgeStyle;rounded=0;orthogonalLoop=1;jettySize=auto;html=1;entryX=1;entryY=0.5;entryDx=0;entryDy=0;" edge="1" parent="WIyWlLk6GJQsqaUBKTNV-1" source="ELYIfCKEnZ6V1FRkc1U1-11" target="ELYIfCKEnZ6V1FRkc1U1-1">
          <mxGeometry relative="1" as="geometry">
            <Array as="points">
              <mxPoint x="450" y="350" />
              <mxPoint x="450" y="560" />
            </Array>
          </mxGeometry>
        </mxCell>
        <mxCell id="ELYIfCKEnZ6V1FRkc1U1-11" value="Aha. eines Tages du wirst Alt auch!" style="rounded=1;whiteSpace=wrap;html=1;" vertex="1" parent="WIyWlLk6GJQsqaUBKTNV-1">
          <mxGeometry x="290" y="320" width="120" height="60" as="geometry" />
        </mxCell>
      </root>
    </mxGraphModel>
  </diagram>
</mxfile>
